# xmcd
#
# Track frame offsets:
#	150
#	12834
#	35408
#	57700
#	77550
#	99071
#	118967
#	146579
#	161978
#	184400
#	206202
#	218425
#	248818
#	258598
#
# Disc length: 3578 seconds
# Revision: 4
# Processed by: cddbd v1.5.2PL0 Copyright (c) Steve Scherf et al.
# Submitted via: dBpowerAMP V12.0
#
DISCID=cb0df80e
DTITLE=The Resentments - Switcheroo
DYEAR=2005
DGENRE=Country
TTITLE0=I Will Walk With You
TTITLE1=Devil
TTITLE2=Death Letter
TTITLE3=Gwendolyn
TTITLE4=Message Of Hope
TTITLE5=Blood
TTITLE6=She Gives Me Religion
TTITLE7=Just A Step
TTITLE8=Someday
TTITLE9=Money
TTITLE10=Little Bit O' Soul
TTITLE11=Nobody Gets Hurt
TTITLE12=[Untitled Track]
TTITLE13=[Untitled Track]
EXTD=
EXTT0=
EXTT1=
EXTT2=
EXTT3=
EXTT4=
EXTT5=
EXTT6=
EXTT7=
EXTT8=
EXTT9=
EXTT10=
EXTT11=
EXTT12=
EXTT13=
PLAYORDER=
